<svg color="white" xmlns="http://www.w3.org/2000/svg" data-name="Layer 1" viewBox="0 0 512 512" id="wind"><g data-name="<Group>"><path d="M37,185H263.923a59.7,59.7,0,0,0-.172-119.4,8,8,0,1,0,0,16,43.7,43.7,0,0,1,.172,87.4H37a8,8,0,0,0,0,16Z" data-name="<Path>"></path><path d="M37 231H376.941a59.428 59.428 0 1 0-.171-118.856 8 8 0 0 0 0 16A43.428 43.428 0 1 1 376.941 215H37a8 8 0 0 0 0 16zM423.666 271H37a8 8 0 0 0 0 16H423.666a43.432 43.432 0 1 1 .012 86.864 8 8 0 0 0 0 16A59.432 59.432 0 1 0 423.666 271z" data-name="<Path>"></path><path d="M225.885,328H37a8,8,0,0,0,0,16H225.885a43.31,43.31,0,1,1,.011,86.618,8,8,0,0,0,0,16A59.31,59.31,0,1,0,225.885,328Z" data-name="<Path>"></path></g></svg>