<svg xmlns="http://www.w3.org/2000/svg" width="64" height="64" id="line"><path style="text-indent:0;text-align:start;line-height:normal;text-transform:none;block-progression:tb;marker:none;-inkscape-font-specification:Sans" d="M27.219 1012.29c-.63 0-1.19.276-1.657.688-.466.413-.859.957-1.218 1.594-.72 1.274-1.317 2.917-1.969 4.531-.652 1.615-1.348 3.227-2.188 4.375-.84 1.148-1.77 1.813-2.968 1.813H2.78a.5.5 0 1 0 0 1H17.22c1.587 0 2.808-.964 3.75-2.25.941-1.287 1.653-2.931 2.312-4.563.66-1.631 1.282-3.245 1.938-4.406.327-.58.663-1.046 1-1.344.337-.298.644-.437 1-.437.774 0 1.399.5 2.031 1.375.632.874 1.204 2.098 1.75 3.344.546 1.245 1.086 2.505 1.719 3.5.632.994 1.424 1.78 2.5 1.78.949 0 1.69-.386 2.187-.937.497-.55.769-1.21 1.032-1.843.262-.635.505-1.237.78-1.625.276-.39.521-.594 1-.594.192 0 .306.066.47.219.163.153.363.404.53.75.336.69.638 1.695 1.032 2.718s.878 2.076 1.656 2.907c.779.83 1.868 1.406 3.313 1.406h14a.5.5 0 1 0 0-1h-14c-1.192 0-1.967-.425-2.594-1.094-.627-.67-1.093-1.585-1.469-2.562-.376-.978-.668-2.003-1.062-2.813-.197-.405-.416-.747-.719-1.031-.303-.285-.706-.5-1.156-.5-.804 0-1.424.451-1.813 1-.388.548-.62 1.197-.875 1.812-.255.616-.526 1.207-.875 1.594-.348.387-.742.594-1.437.594-.569 0-1.097-.432-1.657-1.313-.56-.88-1.106-2.12-1.656-3.375-.55-1.254-1.12-2.53-1.843-3.531-.724-1-1.647-1.781-2.844-1.781z" color="#000" enable-background="accumulate" font-family="Sans" font-weight="400" overflow="visible" transform="translate(0 -988.362)"></path></svg>