<svg width="55" height="45" viewBox="0 0 55 45" fill="none" xmlns="http://www.w3.org/2000/svg">
<g id="Group 1">
<path id="Rectangle 4 (Stroke)" fill-rule="evenodd" clip-rule="evenodd" d="M0.833313 6.25C0.833313 3.25846 3.25844 0.833332 6.24998 0.833332H48.75C51.7415 0.833332 54.1666 3.25846 54.1666 6.25V39.5833C54.1666 42.5749 51.7415 45 48.75 45H6.24998C3.25844 45 0.833313 42.5749 0.833313 39.5833V6.25ZM6.24998 3.33333C4.63915 3.33333 3.33331 4.63917 3.33331 6.25V39.5833C3.33331 41.1942 4.63915 42.5 6.24998 42.5H48.75C50.3608 42.5 51.6666 41.1942 51.6666 39.5833V6.25C51.6666 4.63917 50.3608 3.33333 48.75 3.33333H6.24998Z" fill="#9CA3AF"/>
<circle id="Ellipse 1" cx="13.3333" cy="12.5" r="5.41667" fill="#9CA3AF"/>
<path id="Vector 2" d="M7.91663 35.8333V32.7737C7.91663 32.3317 8.09222 31.9077 8.40478 31.5952L15.5429 24.4571C16.172 23.828 17.1842 23.8039 17.8425 24.4023L20.0905 26.446C20.7421 27.0383 21.7421 27.0216 22.3734 26.4077L35.0717 14.0622C35.7251 13.427 36.7676 13.4343 37.412 14.0787L47.4285 24.0952C47.741 24.4077 47.9166 24.8317 47.9166 25.2737V35.8333C47.9166 36.7538 47.1704 37.5 46.25 37.5H9.58329C8.66282 37.5 7.91663 36.7538 7.91663 35.8333Z" fill="#9CA3AF"/>
</g>
</svg>
